<svg width="224" height="73" viewBox="0 0 224 73" fill="none" xmlns="http://www.w3.org/2000/svg">
<path d="M215.903 15.1636C220.1 15.1636 223.502 11.7691 223.502 7.5818C223.502 3.39449 220.1 0 215.903 0C211.706 0 208.304 3.39449 208.304 7.5818C208.304 11.7691 211.706 15.1636 215.903 15.1636Z" fill="white"/>
<path d="M194.019 70.7891H206.237V44.908C205.996 39.482 204.094 34.2352 200.653 29.8676L200.109 29.1956C190.73 18.0469 174.067 16.5911 162.892 25.9479C156.657 31.1667 153.245 38.8045 153.407 46.7111V70.7947H166.692V45.4848C166.692 38.1269 172.535 32.1354 179.842 31.8666L180.353 31.8554C187.896 31.8554 194.014 37.959 194.014 45.4848V70.7891H194.019Z" fill="white"/>
<path d="M124.419 31.8515C131.962 31.8515 138.08 37.955 138.08 45.4809V70.7852H150.355V46.4608C150.439 40.2005 148.3 34.097 144.175 29.1917C134.797 18.043 118.133 16.5871 106.959 25.944C100.724 31.1628 97.3 38.8006 97.4683 46.7072L97.502 48.6726L97.5301 52.8835V59.1942L97.4796 70.7852H110.764V45.4753C110.764 41.3708 112.588 37.6863 115.467 35.1889C117.746 33.2122 120.687 31.9747 123.914 31.8571L124.425 31.8459L124.419 31.8515Z" fill="white"/>
<path d="M222.538 70.7885V26.3057C222.538 22.6435 219.563 19.6758 215.893 19.6758C212.222 19.6758 209.248 22.6435 209.248 26.3057V70.7885H222.538Z" fill="white"/>
<path d="M9.43609 25.9418C-1.73831 35.2986 -3.19755 51.9237 6.18086 63.0724C15.5593 74.2212 32.2227 75.677 43.3971 66.3202C49.1947 61.471 52.5341 54.5107 52.8148 47.1305L52.8316 46.4138L52.8372 46.1114C53.1291 38.048 59.8135 31.5973 67.9684 31.5973C76.1233 31.5973 83.0659 38.3392 83.0659 46.6601C83.0659 54.9811 76.3029 61.7229 67.9684 61.7229C62.2774 61.7229 57.2991 58.5816 54.7174 53.9396C53.6454 57.8313 51.7652 61.4766 49.1723 64.6403C58.7415 74.3331 74.3217 75.2067 84.9517 66.3146C96.1261 56.9577 97.5853 40.3326 88.2069 29.1839C78.8285 18.0352 62.1651 16.5793 50.9907 25.9362C44.9405 30.9982 41.5393 38.3336 41.4944 45.9826V46.6209L41.5 46.6881C41.5 55.0091 34.737 61.7509 26.3969 61.7509C18.0568 61.7509 11.2545 55.0091 11.2545 46.6881C11.2545 38.3672 18.0568 31.6253 26.3969 31.6253C31.9533 31.6253 36.8024 34.6155 39.4291 39.0671C40.473 34.9011 42.4373 30.987 45.2099 27.6105C35.6406 17.9232 20.0605 17.0497 9.43609 25.9418Z" fill="white"/>
</svg>
