<?xml version="1.0" encoding="UTF-8"?>
<svg id="Capa_1" xmlns="http://www.w3.org/2000/svg" version="1.1" viewBox="0 0 374.06 150.34">
  <!-- Generator: Adobe Illustrator 30.2.1, SVG Export Plug-In . SVG Version: 2.1.1 Build 1)  -->
  <defs>
    <style>
      .st0 {
        fill: #033;
      }
    </style>
  </defs>
  <circle class="st0" cx="347.01" cy="34.85" r="11.97"/>
  <path class="st0" d="M312.54,134.65h19.25s0-40.86,0-40.86c-.38-8.57-3.38-16.85-8.8-23.75l-.86-1.06c-14.77-17.61-41.02-19.9-58.63-5.13-9.83,8.24-15.2,20.3-14.94,32.78v38.02h20.92s0-39.96,0-39.96c0-11.62,9.2-21.08,20.71-21.51h.81c11.89-.01,21.52,9.62,21.52,21.51v39.96Z"/>
  <path class="st0" d="M202.9,73.17c11.89,0,21.52,9.64,21.52,21.52v39.96s19.33,0,19.33,0v-38.41c.13-9.88-3.23-19.52-9.73-27.27-14.77-17.61-41.02-19.9-58.63-5.13-9.83,8.24-15.22,20.3-14.95,32.78l.05,3.1.05,6.65v9.97s-.08,18.3-.08,18.3h20.92s0-39.96,0-39.96c0-6.48,2.87-12.3,7.41-16.24h0s0,0,0,0c3.59-3.12,8.22-5.07,13.3-5.26h.81Z"/>
  <path class="st0" d="M357.47,134.65v-70.24c0-5.78-4.69-10.47-10.47-10.47s-10.47,4.69-10.47,10.47v70.24s20.94,0,20.94,0Z"/>
  <path class="st0" d="M25.54,63.23c-17.11,14.36-19.34,39.86-4.98,56.97,14.36,17.11,39.86,19.34,56.97,4.98,8.87-7.44,13.99-18.12,14.42-29.44l.03-1.1h0s.01-.47.01-.47c.45-12.37,10.68-22.27,23.16-22.27s23.12,10.35,23.12,23.11-10.35,23.11-23.12,23.11c-8.71,0-16.33-4.82-20.29-11.94-1.64,5.97-4.52,11.57-8.49,16.42,14.65,14.87,38.51,16.21,54.77,2.56,17.11-14.36,19.34-39.86,4.98-56.97-14.36-17.11-39.86-19.34-56.97-4.98-9.26,7.77-14.47,19.02-14.54,30.76v.98s0,.1,0,.1c0,12.77-10.35,23.11-23.13,23.11s-23.19-10.35-23.19-23.11,10.41-23.11,23.19-23.11c8.5,0,15.93,4.59,19.95,11.42,1.6-6.39,4.6-12.4,8.85-17.58-14.65-14.86-38.5-16.21-54.77-2.56Z"/>
</svg>